<?xml version="1.0" encoding="UTF-8" standalone="no"?>
<!-- Created with Inkscape (http://www.inkscape.org/) -->

<svg
   width="210mm"
   height="297mm"
   viewBox="0 0 210 297"
   version="1.1"
   id="svg1"
   xml:space="preserve"
   inkscape:version="1.3.2 (091e20e, 2023-11-25, custom)"
   sodipodi:docname="logo-2.svg"
   xmlns:inkscape="http://www.inkscape.org/namespaces/inkscape"
   xmlns:sodipodi="http://sodipodi.sourceforge.net/DTD/sodipodi-0.dtd"
   xmlns="http://www.w3.org/2000/svg"
   xmlns:svg="http://www.w3.org/2000/svg"><sodipodi:namedview
     id="namedview1"
     pagecolor="#ffffff"
     bordercolor="#000000"
     borderopacity="0.25"
     inkscape:showpageshadow="2"
     inkscape:pageopacity="0.0"
     inkscape:pagecheckerboard="true"
     inkscape:deskcolor="#d1d1d1"
     inkscape:document-units="mm"
     inkscape:zoom="0.90599747"
     inkscape:cx="396.80022"
     inkscape:cy="561.25984"
     inkscape:window-width="2240"
     inkscape:window-height="1294"
     inkscape:window-x="-11"
     inkscape:window-y="-11"
     inkscape:window-maximized="1"
     inkscape:current-layer="layer1" /><defs
     id="defs1" /><g
     inkscape:label="Layer 1"
     inkscape:groupmode="layer"
     id="layer1"><path
       style="fill:#f9f9f9"
       d="m 153.4269,177.97048 c -0.15082,-0.1819 -2.14899,-4.02166 -4.44038,-8.53281 -2.29139,-4.51114 -4.19299,-8.23806 -4.2258,-8.28203 -0.0328,-0.044 -0.8058,0.40231 -1.71778,0.99175 -0.91198,0.58944 -3.03897,1.77199 -4.72664,2.62789 -12.94179,6.56338 -28.34359,8.50606 -42.30488,5.33606 -7.418081,-1.68433 -14.559071,-4.81315 -19.756461,-8.65629 -2.18039,-1.61226 -2.29095,-1.66006 -3.46716,-1.49884 -0.90793,0.12445 -1.26922,0.30925 -1.42969,0.7313 -0.77005,2.02539 -1.63602,3.39421 -3.03693,4.80041 -1.88385,1.89096 -3.9601,2.96043 -6.20232,3.19479 l -1.5792,0.16506 -1.78242,3.07307 c -0.98034,1.6902 -2.0842,3.60886 -2.45302,4.26371 -0.64668,1.14816 -1.02524,1.57488 -1.40471,1.58345 -0.50997,0.0115 -0.95588,-0.92035 -1.09762,-2.29383 -0.72883,-7.06208 -0.82976,-7.75629 -1.12773,-7.75629 -0.1746,0 -2.529013,0.53345 -5.232026,1.18544 -2.703013,0.65198 -5.096814,1.1155 -5.319557,1.03002 -0.841784,-0.32302 -0.322447,-1.30944 2.373137,-4.5075 1.527969,-1.81279 2.778125,-3.38562 2.778125,-3.49518 0,-0.10955 -0.327422,-0.51111 -0.727604,-0.89234 -0.598236,-0.56991 -1.644944,-0.90953 -5.886979,-1.91013 -6.035179,-1.42356 -6.35,-1.53601 -6.35,-2.26823 0,-0.44684 0.672719,-0.86941 3.571875,-2.24371 1.964531,-0.93125 3.571875,-1.83462 3.571875,-2.00748 0,-0.17285 -0.355685,-1.42466 -0.790412,-2.78179 -2.429567,-7.58461 -1.352345,-15.56353 2.676307,-19.82322 1.582601,-1.67337 4.020116,-2.97271 6.021304,-3.20972 0.714157,-0.0846 1.41436,-0.22796 1.556007,-0.31861 0.141647,-0.0907 0.942938,-1.89124 1.780648,-4.00129 1.35716,-3.41848 4.63272,-10.00012 5.90854,-11.87215 0.26072,-0.38256 1.10834,-1.98785 1.8836,-3.56732 1.44216,-2.93816 4.45484,-7.391305 6.94977,-10.272685 1.7577,-2.02997 6.06225,-5.91577 8.22212,-7.42228 6.47501,-4.51632 12.59616,-7.13434 19.899401,-8.51098 1.16417,-0.21944 3.06917,-0.64888 4.23333,-0.9543 3.33952,-0.87614 9.31845,-1.58571 13.36146,-1.58571 3.20955,0 10.97923,0.78122 11.60283,1.16663 0.11747,0.0726 1.7633,0.3126 3.6574,0.53334 11.08166,1.29148 21.72723,7.57104 28.74026,16.95316 1.85754,2.48504 4.81204,8.119255 5.68849,10.847925 0.28045,0.87312 1.06899,2.7006 1.7523,4.06105 1.65553,3.29609 3.42173,8.13315 4.50597,12.34036 l 0.8857,3.43684 1.56947,0.4622 c 3.89617,1.1474 5.98091,5.7315 5.35553,11.77621 -0.32135,3.10606 -0.5467,4.08632 -1.72003,7.48183 -0.98144,2.84023 -2.59204,6.0817 -4.29987,8.65389 -0.78618,1.18407 -0.89104,1.48735 -0.57614,1.66633 0.21174,0.12034 1.397,0.92207 2.63393,1.78162 2.1199,1.47314 2.7236,2.21728 2.20763,2.72118 -0.12279,0.11991 -2.42591,0.35952 -5.11805,0.53246 -2.69213,0.17294 -5.1085,0.42642 -5.3697,0.56329 -0.55164,0.28907 -0.59775,0.19715 2.5259,5.03583 2.82845,4.38141 2.68469,4.39232 -6.59138,0.50039 -1.76962,-0.74248 -3.39555,-1.34995 -3.6132,-1.34995 -0.27802,0 -0.44948,0.41313 -0.57651,1.38906 -0.1619,1.24388 -1.26306,7.34755 -1.59907,8.86354 -0.14508,0.65453 -0.94071,0.80602 -1.38964,0.26458 z m -34.58327,-8.78838 c 6.48656,-1.02168 13.38386,-3.20215 18.55595,-5.86616 3.26696,-1.68272 6.69007,-3.77382 8.21149,-5.01621 0.60658,-0.49533 1.27467,-0.9006 1.48466,-0.9006 0.29237,0 0.41624,-0.54222 0.52887,-2.3151 0.32261,-5.07782 3.34183,-12.52649 7.11304,-17.54848 l 1.77044,-2.35764 -0.43814,-0.86178 c -0.3156,-0.62076 -0.45787,-1.70812 -0.50867,-3.88776 -0.0829,-3.55632 -0.70548,-9.17258 -1.20438,-10.86464 l -0.35105,-1.19063 -0.6839,1.19063 c -0.37614,0.65484 -0.95193,2.02406 -1.27954,3.0427 -0.7254,2.25555 -1.44296,3.72784 -1.90052,3.89951 -0.1881,0.0706 -0.58013,0.0341 -0.87117,-0.0811 -0.29104,-0.11515 -1.05187,-0.21774 -1.69074,-0.22796 -0.63887,-0.0102 -2.06762,-0.30903 -3.175,-0.66399 -1.10738,-0.35496 -2.69734,-0.83434 -3.53323,-1.06527 -0.96378,-0.26627 -1.66162,-0.63634 -1.90745,-1.01152 -0.46727,-0.71314 -1.10229,-3.38975 -1.36287,-5.74449 -0.10467,-0.94588 -0.24566,-1.5412 -0.3133,-1.32291 -0.52883,1.70644 -2.29097,5.85426 -2.5939,6.10567 -0.287,0.23819 -0.64191,0.23959 -1.49874,0.006 -0.61748,-0.16838 -2.59136,-0.47425 -4.38641,-0.6797 -1.88446,-0.21569 -3.52387,-0.54401 -3.87931,-0.77691 -0.62965,-0.41256 -1.19816,-2.31284 -1.59053,-5.31646 -0.0951,-0.72761 -0.2984,-1.73084 -0.45188,-2.22942 l -0.27906,-0.9065 -0.9888,2.75858 c -1.47694,4.1204 -2.04711,5.24928 -2.72114,5.3876 -2.66978,0.54787 -7.82572,0.7474 -9.31514,0.36048 -1.26551,-0.32875 -1.35951,-0.41804 -2.16606,-2.0575 -0.46373,-0.94261 -0.9975,-2.49039 -1.18615,-3.4395 l -0.34301,-1.72566 -0.18766,1.05825 c -0.10322,0.58204 -0.19635,1.89169 -0.20697,2.91033 -0.0106,1.01865 -0.12654,2.02153 -0.25761,2.22864 -0.38083,0.6017 -6.73027,2.10585 -8.95988,2.12254 -2.27602,0.017 -2.83895,-0.3726 -3.62689,-2.51038 -0.702651,-1.90639 -0.827841,-1.91816 -1.018331,-0.0957 -0.20341,1.94613 -0.4059,2.2418 -1.7018,2.48491 -1.39251,0.26123 -3.74444,1.29202 -5.75293,2.52135 -0.947,0.57963 -1.95784,1.05387 -2.24632,1.05387 -0.99147,0 -2.40558,-2.05499 -2.86474,-4.16308 l -0.21701,-0.99629 -0.19143,1.19062 c -0.52269,3.25096 -0.74484,3.99182 -1.30647,4.35698 -0.73745,0.47948 -4.97506,1.7153 -6.53699,1.9064 -1.44298,0.17655 -1.61741,0.0104 -2.27029,-2.16234 l -0.47703,-1.5875 -0.18626,1.32292 c -0.10245,0.7276 -0.1967,2.04959 -0.20944,2.93775 -0.0493,3.43107 -0.31287,4.777 -1.10563,5.64497 l -0.74666,0.81749 1.14769,1.64989 c 3.47008,4.98848 5.45354,10.97372 5.58842,16.86343 l 0.0697,3.04271 1.81114,1.54649 c 2.66586,2.27633 5.32598,3.95933 9.48405,6.00035 5.84233,2.86774 11.545431,4.55315 18.256251,5.39515 3.96093,0.49697 12.82052,0.37314 16.66875,-0.23298 z m -3.27909,-5.56221 c -0.93037,-0.21019 -2.14306,-0.60554 -2.69485,-0.87855 -0.98758,-0.48861 -1.01146,-0.48818 -1.52753,0.0279 -0.62592,0.62592 -1.36208,0.43503 -1.36208,-0.35319 0,-0.82982 2.05147,-3.69399 2.64584,-3.69399 0.12473,0 0.41365,0.18686 0.64203,0.41525 0.30686,0.30686 0.34633,0.54403 0.15119,0.90864 -0.37959,0.70928 -0.38499,0.70257 0.99272,1.23155 1.30505,0.50108 4.72435,0.67155 5.76856,0.28759 0.75731,-0.27847 1.55721,0.34379 1.33638,1.03958 -0.3741,1.17869 -3.14035,1.65051 -5.95226,1.01523 z M 89.871759,158.4741 c -2.42116,-0.74109 -5.21272,-2.8591 -6.5832,-4.99481 -1.49659,-2.33223 -1.95865,-4.06629 -1.98708,-7.45724 -0.0282,-3.36813 0.45549,-5.27872 1.95938,-7.73906 l 0.76821,-1.25677 h -1.13168 c -1.59137,0 -3.59601,0.65021 -4.88629,1.58489 -1.25599,0.90983 -1.76413,0.99362 -2.02163,0.33333 -0.26638,-0.68305 1.61831,-2.24716 3.62567,-3.00894 1.4921,-0.56625 2.06724,-0.62806 5.7587,-0.61888 l 4.10104,0.0102 3.210151,1.09483 c 8.22775,2.80609 14.1347,7.3445 17.19106,13.20818 0.49376,0.94728 0.89774,1.99676 0.89774,2.33217 0,0.72199 -0.58813,1.28294 -1.2157,1.1595 -0.51441,-0.10118 -0.69751,-0.39866 -1.32156,-2.14713 -0.24839,-0.69596 -0.8363,-1.80644 -1.30647,-2.46775 l -0.85486,-1.20237 -0.55012,1.8063 c -1.27462,4.18512 -4.85732,7.88367 -8.83636,9.12208 -1.63062,0.50751 -5.500061,0.64457 -6.817001,0.24147 z m 40.177691,-1.17296 c -2.30705,-0.94895 -3.31191,-1.87095 -4.42183,-4.05719 -0.60213,-1.18603 -1.18958,-4.49667 -0.93862,-5.28969 0.13136,-0.4151 0.0939,-0.40833 -0.28863,0.0522 -0.6773,0.81534 -1.58589,2.70443 -2.38337,4.95538 -0.7376,2.08192 -1.21199,2.76579 -1.70657,2.46012 -0.74215,-0.45867 0.0966,-3.62448 1.86047,-7.02192 2.92101,-5.62638 8.31568,-10.24666 14.26752,-12.21948 2.16011,-0.71599 2.90417,-0.83485 5.29167,-0.84531 3.54455,-0.0155 5.80567,0.64291 8.06979,2.34988 1.7872,1.34742 2.23293,2.03012 1.72502,2.64212 -0.50665,0.61047 -1.1618,0.4882 -2.15219,-0.40164 -0.49266,-0.44264 -1.23889,-0.98961 -1.65827,-1.21548 -0.75024,-0.40405 -0.75998,-0.40049 -0.6041,0.22056 0.82416,3.28373 0.36686,6.39831 -1.48158,10.09063 -1.05306,2.10352 -1.72757,3.05495 -3.21119,4.52953 -3.85578,3.83232 -8.64112,5.28335 -12.36812,3.75033 z m -23.45081,-18.28223 c -1.27008,-1.0687 -3.20055,-1.79643 -5.13203,-1.93463 -1.91073,-0.13671 -2.4557,-0.58062 -1.67185,-1.36181 0.30721,-0.30617 0.93108,-0.41191 2.36218,-0.4004 1.6256,0.0131 2.22121,0.15177 3.62968,0.84515 2.1282,1.04771 3.37368,2.27252 2.96839,2.91914 -0.44131,0.70409 -1.27026,0.67816 -2.15637,-0.0675 z m 18.43843,0.22703 c -0.29965,-0.36107 -0.26843,-0.57312 0.20455,-1.38907 1.44878,-2.49934 7.26002,-4.72964 8.66436,-3.3253 0.49188,0.49189 0.4961,0.52725 0.14188,1.18912 -0.21671,0.40493 -0.56195,0.51231 -1.65365,0.51436 -1.71942,0.003 -3.69601,0.8837 -5.29728,2.3597 -1.29545,1.19411 -1.54405,1.2727 -2.05986,0.65119 z m -61.249501,27.1348 c 1.69911,-0.63572 3.7975,-2.42526 4.75035,-4.05118 0.36967,-0.63079 0.94547,-2.14702 1.27954,-3.36939 0.77718,-2.84362 0.83939,-7.81926 0.13452,-10.75811 -2.04573,-8.52944 -7.14029,-15.44363 -13.807,-18.73849 l -1.94756,-0.96253 -2.998768,0.10725 c -3.477924,0.12439 -4.555295,0.54141 -6.458924,2.50009 -2.516852,2.58965 -3.688556,6.46463 -3.469503,11.47408 0.263283,6.02092 2.402047,11.4709 6.626837,16.88645 4.358868,5.58742 11.328168,8.61883 15.890508,6.91183 z m -9.06693,-6.15714 c -0.42632,-0.51368 -2.13293,-4.27682 -2.84079,-6.26405 -0.684916,-1.9228 -0.29045,-1.71391 -4.497395,-2.38161 -1.031668,-0.16374 -2.257771,-0.53002 -2.724674,-0.81397 l -0.848916,-0.51625 0.475716,-0.82619 c 0.422457,-0.73369 1.830911,-2.04368 4.15312,-3.86279 l 0.760324,-0.59561 -0.982857,-3.34293 c -0.85988,-2.92466 -0.934717,-3.39107 -0.59811,-3.72768 0.536182,-0.53618 1.552717,0.0207 3.693962,2.02377 l 1.66674,1.55915 1.56438,-1.28978 c 0.8604,-0.70938 1.65499,-1.45171 1.76575,-1.64963 0.29822,-0.53289 2.24605,-1.33906 2.75941,-1.14207 0.38414,0.14741 0.42025,0.43179 0.26467,2.08429 -0.0991,1.05247 -0.36599,3.02633 -0.59311,4.38634 l -0.41293,2.47275 1.15468,1.18122 c 0.63508,0.64968 2.16672,1.8425 3.40365,2.65072 2.352,1.53683 3.15925,2.30872 3.16911,3.03027 0.0136,0.9946 -0.59179,1.08629 -4.32661,0.65533 -1.96127,-0.22631 -3.72356,-0.44417 -3.9162,-0.48413 -0.21725,-0.0451 -0.37854,0.22877 -0.42472,0.72109 -0.14746,1.57195 -0.89538,5.30418 -1.17972,5.88698 -0.32336,0.66277 -1.04051,0.78094 -1.48548,0.24478 z m 104.543281,4.125 c 2.95673,-1.38847 5.5932,-3.67559 8.88479,-7.70753 4.62632,-5.66689 7.80264,-14.99005 7.00152,-20.55091 -0.75983,-5.27419 -3.63385,-7.35967 -8.40243,-6.09708 -2.3895,0.63267 -4.18055,1.8691 -7.04867,4.86597 -4.98124,5.20486 -8.27541,11.3821 -9.64353,18.08356 -0.50367,2.46712 -0.42043,6.74092 0.16551,8.49802 0.42111,1.26282 1.94449,3.05766 3.00149,3.53635 1.3627,0.61713 3.9655,0.3464 6.04132,-0.62838 z m 3.67842,-5.82499 c -0.13069,-0.25466 -0.3183,-0.9988 -0.41691,-1.65365 -0.0986,-0.65484 -0.3013,-1.6489 -0.45041,-2.20902 -0.26496,-0.9953 -0.29284,-1.01432 -1.22935,-0.83863 -0.52703,0.0989 -1.91542,0.57669 -3.08531,1.06182 -1.55911,0.64653 -2.25239,0.81498 -2.59638,0.63088 -0.70883,-0.37935 -0.56459,-1.17792 0.33707,-1.86607 0.44351,-0.33849 1.82408,-1.49758 3.06794,-2.57575 l 2.26155,-1.96031 -0.1805,-1.47927 c -0.0993,-0.8136 -0.36101,-2.19365 -0.58161,-3.06677 -0.60993,-2.41396 -0.58814,-2.89495 0.13578,-2.99751 0.74696,-0.10583 2.38562,0.52236 4.09625,1.5703 0.69928,0.42839 1.38235,0.71032 1.51793,0.62653 0.13558,-0.0838 0.62967,-0.70925 1.09796,-1.38989 1.32655,-1.92807 1.84922,-2.43964 2.49258,-2.43964 0.94315,0 0.96496,0.76975 0.1013,3.57546 -0.53118,1.72564 -0.71344,2.69499 -0.53944,2.86899 0.14454,0.14454 0.8313,0.56984 1.52615,0.94512 1.72128,0.92964 1.67933,1.49261 -0.19185,2.57472 -3.89279,2.25121 -3.59739,1.91337 -4.66508,5.33516 -0.53014,1.699 -1.08117,3.23792 -1.22451,3.41982 -0.37761,0.47919 -1.19712,0.4056 -1.47316,-0.13229 z m 0.0754,-28.62285 c 0.0837,-0.13547 0.0312,-0.32109 -0.11668,-0.41249 -0.1479,-0.0914 -0.2689,0.0194 -0.2689,0.2463 0,0.46475 0.15876,0.53318 0.38558,0.16619 z m 4.3212,-1.99743 c 0.64524,-0.13652 0.83678,-0.29787 0.74061,-0.62386 -0.0713,-0.24183 -0.38301,-1.45173 -0.69258,-2.68866 -1.48036,-5.91491 -5.05337,-13.8981 -8.64457,-19.31458 -5.94925,-8.973045 -13.33736,-15.494495 -22.62115,-19.967565 -5.83318,-2.81051 -10.36873,-4.08729 -17.93909,-5.04994 -10.05073,-1.27804 -22.23685,1.38493 -32.842901,7.177 -8.5951,4.69387 -16.35545,11.68463 -22.54887,20.312705 -3.04522,4.24231 -7.2927,11.92293 -8.91932,16.12858 -0.46139,1.19296 -0.88907,2.2969 -0.9504,2.45321 -0.0613,0.15631 0.57782,0.49914 1.42031,0.76185 0.84249,0.26271 1.81781,0.587 2.16737,0.72065 0.34956,0.13365 0.71773,0.14801 0.81816,0.0319 0.10042,-0.11611 0.50672,-1.1636 0.90287,-2.32777 1.61963,-4.75955 5.10949,-10.88882 8.81287,-15.47812 2.42048,-2.9995 7.79314,-8.08618 11.02438,-10.437575 10.45425,-7.60759 23.186641,-11.78743 35.906171,-11.78743 11.82376,0 21.31035,2.81956 30.93228,9.19356 4.15813,2.75454 9.67763,8.250435 12.4231,12.369985 3.59961,5.40117 6.03619,11.31926 7.05191,17.1281 l 0.45044,2.57602 0.81905,-0.49696 c 0.45047,-0.27332 1.21068,-0.57982 1.68936,-0.6811 z"
       id="path1-0" /></g></svg>
